# xmcd
#
# Track frame offsets: 
#        150
#        32172
#        52970
#        84060
#        109592
#        135500
#        151167
#        180332
#        208010
#        234402
#        260802
#        280937
#
# Disc length: 4134 seconds
#
# Revision: 1
# Processed by: cddbd v1.4PL0 Copyright (c) Steve Scherf et al.
# Submitted via: ExactAudioCopy v0.95a3
#
DISCID=9410240c
DTITLE=Wilen Barney - Paris Mood
DYEAR=1990
DGENRE=Jazz
TTITLE0=Latin Alley
TTITLE1=April In Paris
TTITLE2=I'm A Fool To Want You
TTITLE3=Que Reste-t-il De Nos Amours
TTITLE4=Beautiful Love
TTITLE5=Blue De Memphis
TTITLE6=My Funny Valentine
TTITLE7=Mon Blouson ~ C'est Ma Maison
TTITLE8=You Must Believe In Spring
TTITLE9=Grisbi
TTITLE10=Les Petites Femmes De Paris
TTITLE11=Ask Me Now
EXTD=
EXTT0=
EXTT1=
EXTT2=
EXTT3=
EXTT4=
EXTT5=
EXTT6=
EXTT7=
EXTT8=
EXTT9=
EXTT10=
EXTT11=
PLAYORDER=
